<svg className="logo" style="fill:transparent" version="1.1" id="图层_1" xmlns="http://www.w3.org/2000/svg" x="0px" y="0px" viewBox="0 0 1078.999 299.708">
  <g>
    <rect width="1078.999" height="299.708"/>
    <polygon className="st0" style="fill:#000000" points="49.5,51.9675 49.5,86.3046 72.248,86.3046 72.248,247.9955 102.758,247.9955 102.758,86.3046 
      124.466,86.3046 124.466,51.9675 	"/>
    <polygon className="st0" style="fill:#000000" points="174.552,51.9675 174.552,131.4656 160.608,131.4656 160.608,51.9675 130.097,51.9675 
      130.097,247.9955 160.608,247.9955 160.608,168.4985 174.552,168.4985 174.552,247.9955 205.063,247.9955 205.063,51.9675 	"/>
    <polygon className="st0" style="fill:#000000" points="241.6832,84.1993 285.1392,84.1993 285.1392,51.9673 210.6942,51.9673 210.6942,247.9953 
      285.1392,247.9953 285.1392,215.4573 241.6832,215.4573 241.6832,169.1113 278.3162,169.1113 278.3162,131.6843 241.6832,131.6843 
        "/>
    <g>
      <path className="st0" style="fill:#000000" d="M362.3112,176.4349c2.427,3.951,3.713,8.511,3.713,13.162v20.207c0,3.712-2.967,6.724-6.635,6.736
        c-3.709,0.011-6.713-3.049-6.675-6.804l0.196-19.634h-30.512l-0.084,26.586c-1.11,17.969,12.538,32.671,30.327,32.671h7.926
        c19.865,0,35.968-16.297,35.968-36.401v-25.764c0-11.657-4.861-21.631-6.787-24.745c-1.612-2.607-28.645-43.283-34.838-52.6
        c-1.188-1.7859-2.006-3.817-2.241-5.956c-0.046-0.418-0.07-0.823-0.07-1.216v-13.274c0-3.751,3.005-6.793,6.712-6.794
        c3.708,0,6.713,3.042,6.713,6.794v19.195h30.511v-25.926c0-18.0439-14.454-32.672-32.283-32.672h-9.881
        c-17.829,0-32.282,14.6281-32.282,32.672v22.028c0,1.588,0.247,3.286,0.7,5.069c0.76,2.997,2.083,5.818,3.756,8.408l35.765,58.258
        H362.3112z"/>
      <path className="st0" style="fill:#000000" d="M402.1312,51.9675v161.465c0,19.796,15.856,35.843,35.417,35.843h3.612c19.56,0,35.417-16.047,35.417-35.843
        V51.9675h-30.511v157.844c0,3.752-3.005,6.793-6.713,6.793c-3.707,0-6.712-3.041-6.712-6.793V51.9675H402.1312z"/>
      <path className="st0" style="fill:#000000" d="M517.3832,223.2225h-4.701v-60.283h3.618c5.703,0,10.326,4.679,10.326,10.451v40.476
        c0,5.167-4.138,9.355-9.243,9.355V223.2225z M517.3832,127.8976h-4.701v-52.388h3.618c5.703,0,10.326,4.679,10.326,10.451v32.581
        c0,5.167-4.138,9.355-9.243,9.355V127.8976z M524.8553,51.9675h-42.683v196.028h42.683c17.829,0,32.282-14.627,32.282-32.671
        v-45.394c0-15.198-12.174-26.717-27.191-26.717l-3.3199,0.251v-1.052l3.3199,0.166c15.017,0,27.191-12.487,27.191-27.686v-30.254
        C557.1373,66.5956,542.6843,51.9675,524.8553,51.9675"/>
      <path className="st0" style="fill:#000000" d="M602.9907,176.4825c2.4269,3.951,3.713,8.511,3.713,13.162v20.207c0,3.712-2.967,6.724-6.635,6.736
        c-3.709,0.011-6.712-3.049-6.675-6.804l0.196-19.634h-30.511l-0.085,26.586c-1.11,17.969,12.538,32.671,30.327,32.671h7.926
        c19.865,0,35.968-16.297,35.968-36.401v-25.764c0-11.657-4.861-21.631-6.787-24.745c-1.612-2.607-28.645-43.283-34.838-52.6
        c-1.188-1.7859-2.006-3.817-2.241-5.956c-0.046-0.418-0.07-0.823-0.07-1.216v-13.274c0-3.751,3.005-6.793,6.712-6.794
        c3.7079,0,6.713,3.042,6.713,6.794v19.195h30.511v-25.927c0-18.043-14.454-32.671-32.283-32.671h-9.881
        c-17.828,0-32.282,14.6281-32.282,32.671v22.029c0,1.589,0.247,3.286,0.7,5.069c0.76,2.997,2.083,5.818,3.756,8.407l35.765,58.259
        H602.9907z"/>
    </g>
    <polygon className="st0" style="fill:#000000" points="640.9132,51.6656 640.9132,86.0027 663.6612,86.0027 663.6612,247.6937 694.1712,247.6937 
      694.1712,86.0027 715.8792,86.0027 715.8792,51.6656 	"/>
    <path className="st0" style="fill:#000000" d="M759.8143,170.1917h-13.424l5.973-84.549l-0.025-4.177h1.528l-0.042,3.963L759.8143,170.1917z
      M775.8883,51.6656h-45.572l-14.437,196.028h27.573l2.576-42.464h14.133l2.59,42.464h27.574L775.8883,51.6656z"/>
    <polygon className="st0" style="fill:#000000" points="842.0188,51.6654 843.1388,153.8795 840.8918,135.4424 821.4968,51.6654 794.9717,51.6654 
      794.9717,247.6945 825.4828,247.6945 825.4828,160.1064 842.8968,247.6945 869.4178,247.6945 869.4178,51.6654 	"/>
    <g>
      <path className="st0" style="fill:#000000" d="M910.4297,50.3018c-19.5601,0-35.4171,16.048-35.4171,35.8441v127.672c0,19.796,15.857,35.844,35.4171,35.844
        h3.612c19.56,0,35.417-16.048,35.417-35.844v-20.215h-30.511v16.594c0,3.752-3.005,6.793-6.712,6.793s-6.713-3.041-6.713-6.793
        v-120.43c0-3.752,3.005-6.794,6.713-6.794c3.707,0,6.712,3.041,6.712,6.794v19.133h30.511v-22.754
        c0-19.796-15.857-35.8441-35.417-35.8441H910.4297z"/>
    </g>
    <polygon className="st0" style="fill:#000000" points="986.0439,84.1993 1029.4999,84.1993 1029.4999,51.9673 955.0549,51.9673 955.0549,247.9953 
      1029.4999,247.9953 1029.4999,215.4573 986.0439,215.4573 986.0439,169.1113 1022.6758,169.1113 1022.6758,131.6843 
      986.0439,131.6843 	"/>
  </g>
</svg>
